-------------------------------------------- 
http://www.imdb.com/title/tt1389096/

95 min  -  Comedy | Crime  -  1 February 2013 (USA)
6,5 Your rating:    -/10   Ratings: 6,5/10 from 11 105 users   Metascore: 41/100 

SUBTiTLES.......: Bulgarian

Language : English

Format                           : Matroska
Format version                   : Version 2
File size                        : 1.63 GiB
Duration                         : 1h 34mn
Overall bit rate                 : 2 453 Kbps
Writing application              : Lavf51.12.1
Writing library                  : Lavf51.12.1

Video
ID                               : 1
Format                           : AVC
Format/Info                      : Advanced Video Codec
Format profile                   : Baseline@L4.0
Format settings, CABAC           : No
Format settings, ReFrames        : 1 frame
Format settings, GOP             : M=1, N=12
Codec ID                         : V_MPEG4/ISO/AVC
Duration                         : 1h 34mn
Bit rate mode                    : Variable
Bit rate                         : 1 956 Kbps
Maximum bit rate                 : 3 000 Kbps
Width                            : 1 920 pixels
Height                           : 800 pixels
Display aspect ratio             : 2.40:1
Frame rate                       : 23.976 fps
Original frame rate              : 24.000 fps
Color space                      : YUV
Chroma subsampling               : 4:2:0
Bit depth                        : 8 bits
Scan type                        : Progressive
Bits/(Pixel*Frame)               : 0.053
Stream size                      : 1.30 GiB (80%)
Language                         : English / English

Audio
ID                               : 2
Format                           : AC-3
Format/Info                      : Audio Coding 3
Mode extension                   : CM (complete main)
Codec ID                         : A_AC3
Duration                         : 1h 34mn
Bit rate mode                    : Constant
Bit rate                         : 448 Kbps
Channel(s)                       : 6 channels
Channel positions                : Front: L C R, Side: L R, LFE
Sampling rate                    : 44.1 KHz
Bit depth                        : 16 bits
Compression mode                 : Lossy
Stream size                      : 304 MiB (18%)
Language                         : English / English
--------------------------------------------

More at   
http://publichash.com/

--------------------------------------------	